<svg width="312" height="323" viewBox="0 0 312 323" fill="none" xmlns="http://www.w3.org/2000/svg">
<mask id="path-1-inside-1_1_32" fill="white">
<rect x="214.638" y="75.6041" width="42.8232" height="304.686" rx="5" transform="rotate(44.7857 214.638 75.6041)"/>
</mask>
<rect x="214.638" y="75.6041" width="42.8232" height="304.686" rx="5" transform="rotate(44.7857 214.638 75.6041)" stroke="#FF9800" stroke-width="14" mask="url(#path-1-inside-1_1_32)"/>
<path d="M271.964 138.069L205.037 71.1407C204.681 70.785 204.381 70.3776 204.147 69.9324L174.214 13.0108C173.195 11.0725 173.555 8.69657 175.104 7.14807L177.287 4.96466C178.887 3.36446 181.363 3.03856 183.323 4.17007L238.93 36.275C239.308 36.4934 239.656 36.7606 239.965 37.0696L306.464 103.569C308.417 105.521 308.417 108.687 306.464 110.64L279.036 138.069C277.083 140.021 273.917 140.021 271.964 138.069Z" stroke="#FF9800" stroke-width="7"/>
</svg>
